<svg xmlns="http://www.w3.org/2000/svg" viewBox="0 0 822.22 258.92"><title>logo</title><g id="Layer_2" data-name="Layer 2"><g id="Layer_1-2" data-name="Layer 1"><path d="M632.84,258.92c2.75-44.83,3.39-89.72,2.75-134.62-.3-21.51-.73-43-1.09-64.53,0-.86,0-1.72,0-2.78a55.6,55.6,0,0,0,26.25,0c-.38,8.08-.75,16-1.12,23.93l.42.09,1.24-1.89c9.45-14.72,23-22.24,40.39-23.37,24.68-1.59,52.7,12.66,61,45.43,4.55,18,3.94,36-3,53.39C752,174,738,186.67,717.25,191c-13.58,2.87-26.91,1.86-39.41-4.77a38.09,38.09,0,0,1-17.36-17.83,3.79,3.79,0,0,0-.29-.34,7.84,7.84,0,0,0-.13,1c.07,20.92.07,41.84.28,62.76.08,8.12.62,16.24.94,24.37,0,.91,0,1.82.06,2.73h-.55a5,5,0,0,0-.72-.3,53.75,53.75,0,0,0-16.86-1.14c-3.29.24-6.55.95-9.82,1.44Zm26.65-133.36a107.57,107.57,0,0,0,1.85,21,41.92,41.92,0,0,0,14.28,24c7.49,6.38,16.34,8.59,26,8.07,10.92-.58,19.78-5,26.11-14.08,5-7.13,7.35-15.22,8.71-23.67a108.36,108.36,0,0,0,.78-26,70.33,70.33,0,0,0-5.7-23.69C728,83.45,723,76.9,715.33,72.88c-10.49-5.48-21.25-4.86-31.68-.11C673,77.62,666.51,86.41,663,97.4,660.06,106.55,659.65,116.05,659.49,125.56Z"/><path d="M0,187.94a10.75,10.75,0,0,0,.69-1.11c21.9-47.81,43.67-95.67,64.38-144C71,29,76.65,15.06,82.42,1.16c.16-.37.31-.75.47-1.16,2.16.24,4.28.65,6.4.68A61.42,61.42,0,0,0,95.57.14c24.6,63.54,52.75,125.7,80.77,188.26a87.27,87.27,0,0,0-33.05,0l-2.41-7.79c-6.55-21.22-15.07-41.66-24.37-61.8a1.46,1.46,0,0,0-1.55-1q-33,0-65.91,0a1.43,1.43,0,0,0-1.54,1,443.38,443.38,0,0,0-24.2,68c-.13.47-.27,1-.5,1.72-7.62-2.4-15.23-2-22.81,0ZM53.36,104.3h57.27l-29-66.65C72.13,60,62.78,82.08,53.36,104.3Z"/><path d="M461.82,124.31c0-12.17,2.14-23.9,7.82-34.78,7.93-15.21,20.32-25.2,36.65-30.07A85.68,85.68,0,0,1,561,61.07c17.59,6.35,29.57,18.65,35.62,36.35a76.39,76.39,0,0,1-1.14,53.88c-7.1,18.17-20.31,30.35-38.7,36.56a82.59,82.59,0,0,1-56.63-1c-19.18-7.17-30.93-21.17-35.88-41A92.22,92.22,0,0,1,461.82,124.31Zm111.8-.68c-.45-5-.73-10-1.4-15a64,64,0,0,0-7.05-22.45c-4.37-8-10.51-14-19.16-17.14a43.28,43.28,0,0,0-19.85-2c-11.53,1.26-20.65,6.58-27,16.33-5.91,9-8.31,19.18-9.34,29.73a108.21,108.21,0,0,0,.28,23.11,70.23,70.23,0,0,0,6.79,24c12.07,23.93,37.09,24.8,52.08,16.72,8.73-4.7,14.47-12.11,18.39-21C571.82,145.59,573.26,134.74,573.62,123.63Z"/><path d="M310.44,158.19c-.52,5.28-1,10.41-1.56,15.52a3.08,3.08,0,0,1-1,1.63,59,59,0,0,1-26,13.79c-15,3.72-30,4.06-45-.09-19.88-5.52-33.5-18.11-39.9-37.73-6.58-20.15-6-40.39,2.37-60,8.17-19.07,23.06-30.14,43.38-33.86A79.39,79.39,0,0,1,279.12,59c17.46,5,28.48,16.54,33.82,33.71,3,9.65,3.72,19.6,3.54,29.64a3.79,3.79,0,0,1-.13.64h-96.5c0,2.45-.09,4.77,0,7.08.36,7.64,1.31,15.22,4.34,22.32,5.56,13,14.65,22.59,28.76,25.47,21.06,4.3,39.23-1.2,53.08-18.41C307.75,157.33,307.72,157.3,310.44,158.19ZM289.35,111.6a3.81,3.81,0,0,0,.1-.54,69.62,69.62,0,0,0-2.82-21.76c-1.93-6.16-4.89-11.71-9.93-15.92-6.13-5.12-13.36-6.64-21.12-6.37-12.85.45-22.29,6.38-28.37,17.68-3.67,6.8-5.51,14.16-6.58,21.74-.24,1.7-.41,3.4-.62,5.17Z"/><path d="M427.91,64.89a78.86,78.86,0,0,0-5.35,22.5,22.53,22.53,0,0,1-3,0c-.32,0-.72-.6-.83-1a28,28,0,0,0-4-9,24.56,24.56,0,0,0-17.15-10.19,38,38,0,0,0-17.87,1.19c-7.32,2.48-12.23,7.26-13.47,15.08-1.21,7.65,1.27,14,7.28,19,5,4.09,10.87,6.26,17,7.91,7.62,2,15.31,3.85,22.62,6.88,5.27,2.19,10.18,5,14.07,9.25a28.54,28.54,0,0,1,7.07,16.31c1.21,10.11-.49,19.66-5.94,28.37-5.87,9.4-14.45,15.32-25,18.17-20.36,5.51-39.86,3.11-58.33-7.2-.48-.27-.93-.58-1.39-.87a3.59,3.59,0,0,1-.37-.3c1-2.9,2.24-5.71,3-8.63,1.1-4,2-8.06,2.77-12.13.36-1.77,1.89-1,2.83-1.53.14-.07.87.59,1.05,1,5.41,13.07,15.5,19.75,29.23,21.38a36,36,0,0,0,18.92-2.53c9.33-4.07,13.9-12.5,12.63-22.6a17,17,0,0,0-8.7-13.17c-5.41-3.21-11.35-5.16-17.25-7.22-6.49-2.28-13-4.43-19.45-6.9a38.52,38.52,0,0,1-11.66-7.33c-7.63-6.82-11-15.47-10.91-25.59.27-19.25,12.23-34,31.44-38.17a71.68,71.68,0,0,1,50.3,7A3.73,3.73,0,0,1,427.91,64.89Z"/><path d="M221.44,22.64h74.23v8.24H221.44Z"/><path d="M787.06,173.53a17.58,17.58,0,1,1,17.61,17.68A17.48,17.48,0,0,1,787.06,173.53Zm17.72-14.47a14.07,14.07,0,0,0-14.41,14.2c-.1,8.28,5.83,14.58,13.85,14.72,8.36.14,14.57-5.84,14.69-14.15S813,159.18,804.78,159.06Z"/><path d="M805.78,173.08c2.88,3.3,5.66,6.48,8.68,9.92-1.67,0-3.09.06-4.5,0-.33,0-.67-.53-.94-.87-2.17-2.64-4.31-5.3-6.48-7.94a9.37,9.37,0,0,0-1.26-1.06v9.82h-3.81V163c3.77.2,7.45.24,11.09.65a3.76,3.76,0,0,1,3.63,3.8,4.25,4.25,0,0,1-3,4.66C808.16,172.52,807.08,172.72,805.78,173.08Zm-4.49-8.66v7.46a10.42,10.42,0,0,0,5.43-.93,3,3,0,0,0,1.65-3.06,2.69,2.69,0,0,0-2.11-2.71C804.69,164.81,803.06,164.68,801.29,164.42Z"/></g></g></svg>